<svg width="22" height="22" viewBox="0 0 22 22" fill="none" xmlns="http://www.w3.org/2000/svg">
<path d="M16.1463 14.4817L16.8759 13.4619C17.9496 11.5626 18.2987 9.33861 17.8585 7.20171C17.4183 5.06482 16.2186 3.15983 14.4817 1.83953C12.7448 0.519223 10.5883 -0.126943 8.41152 0.0206903C6.23476 0.168324 4.18523 1.09976 2.64249 2.64249C1.09976 4.18523 0.168324 6.23476 0.0206903 8.41152C-0.126943 10.5883 0.519223 12.7448 1.83953 14.4817C3.15983 16.2186 5.06482 17.4183 7.20171 17.8585C9.33861 18.2987 11.5626 17.9496 13.4619 16.8759L14.2746 16.3965L19.7509 21.7509L21.7509 19.7509L16.1463 14.4817ZM2.04391 9.04391C2.04391 7.65944 2.45446 6.30606 3.22363 5.15492C3.9928 4.00378 5.08605 3.10657 6.36513 2.57676C7.64421 2.04694 9.05168 1.90832 10.4095 2.17842C11.7674 2.44851 13.0147 3.1152 13.9937 4.09416C14.9726 5.07313 15.6393 6.32041 15.9094 7.67828C16.1795 9.03615 16.0409 10.4436 15.5111 11.7227C14.9813 13.0018 14.084 14.095 12.9329 14.8642C11.7818 15.6334 10.4284 16.0439 9.04391 16.0439C7.18805 16.0418 5.4088 15.3036 4.0965 13.9913C2.78421 12.679 2.04603 10.8998 2.04391 9.04391Z" fill="#34388E"/>
</svg>
